<svg xmlns="http://www.w3.org/2000/svg" viewBox="0 0 238.4 187.61"><g id="Layer_2" data-name="Layer 2"><g id="_1" data-name="1"><path d="M143.1,128.83c.19-19.44,2.46-35.45,24.09-38.87A125.12,125.12,0,0,0,206.26,76.6c9.68-5.34,18.52-12.29,24.54-21C241.16,40.67,242.15,12.27,226,0c-3.81,15.75-15,17.71-27.26,18.78-8.73.77-17.57,0-26.29-.72-21.12-1.64-42.25-3.28-53.29,10.9l-2.43,6.36,2.43,10c3-6.09,8.89-13.86,15.08-16.43,9.71-4,23.63-3,37.55-1.88,9.19.71,18.51,1.52,27.72.72,8.82-.78,16.51-3,22-6.37a24,24,0,0,0,5.65-4.67,46.66,46.66,0,0,1,2.13,8.2,34.37,34.37,0,0,1-5.91,25.68C218.31,58,210.54,64,202,68.76a115.88,115.88,0,0,1-36.13,12.38C147.34,84.06,129.71,102.9,143.1,128.83Z" style="fill:#086b99"/><path d="M95.29,128.83C95.1,109.39,92.84,93.38,71.21,90A125,125,0,0,1,32.14,76.6c-9.68-5.34-18.52-12.29-24.54-21C-2.76,40.67-3.76,12.27,12.36,0c3.81,15.75,15,17.71,27.25,18.78,8.74.77,17.58,0,26.29-.72C87,16.42,108.15,14.78,119.2,29V45.3c-3-6.09-8.89-13.86-15.09-16.43-9.7-4-23.62-3-37.54-1.88-9.19.71-18.52,1.52-27.73.72-8.81-.78-16.5-3-22-6.37a24,24,0,0,1-5.65-4.67A46.66,46.66,0,0,0,9,24.87,34.32,34.32,0,0,0,15,50.55C20.09,58,27.86,64,36.44,68.76A116,116,0,0,0,72.58,81.14C91.06,84.06,108.69,102.9,95.29,128.83Z" style="fill:#26a9c7"/><path d="M169.69,144.5a26.66,26.66,0,0,0,9.59,7.61,36.07,36.07,0,0,0,15.66,3.48v-9a27.22,27.22,0,0,1-11.77-2.58c-6.52-3.16-11.36-10.73-13.48-14.67l-1.87,9.06Z" style="fill:#26a9c7"/><path d="M194.94,155.59v-9c11.07,0,21.25-5.45,25.24-9.72C218.59,146.36,209.14,155.59,194.94,155.59Z" style="fill:#086b99"/><path d="M169.69,144.5a26.66,26.66,0,0,1-9.59,7.61,36.07,36.07,0,0,1-15.66,3.48l-2.33-5,2.33-4a27.23,27.23,0,0,0,11.78-2.58c6.51-3.16,11.35-10.73,13.47-14.67Z" style="fill:#086b99"/><path d="M119.2,144.5a26.66,26.66,0,0,0,9.59,7.61,36.06,36.06,0,0,0,15.65,3.48v-9a27.22,27.22,0,0,1-11.77-2.58c-6.51-3.16-11.35-10.73-13.47-14.67l-3,9.43Z" style="fill:#26a9c7"/><path d="M119.2,144.5a26.75,26.75,0,0,1-9.59,7.61A36.07,36.07,0,0,1,94,155.59l-2.14-5.26L94,146.64a27.22,27.22,0,0,0,11.77-2.58c6.52-3.16,11.36-10.73,13.48-14.67Z" style="fill:#086b99"/><path d="M68.71,144.5a26.72,26.72,0,0,0,9.58,7.61A36.14,36.14,0,0,0,94,155.59v-9a27.22,27.22,0,0,1-11.77-2.58c-6.51-3.16-11.35-10.73-13.47-14.67l-2.34,9.43Z" style="fill:#26a9c7"/><path d="M68.71,144.5a26.75,26.75,0,0,1-9.59,7.61,36.11,36.11,0,0,1-15.66,3.48l-1.87-4.88,1.87-4.07a27.22,27.22,0,0,0,11.77-2.58c6.52-3.16,11.35-10.73,13.48-14.67Z" style="fill:#086b99"/><path d="M43.46,155.59v-9c-11.08,0-21.26-5.45-25.25-9.72C19.81,146.36,29.26,155.59,43.46,155.59Z" style="fill:#26a9c7"/><path d="M144.44,176.52a26.84,26.84,0,0,0,9.59,7.61,36.11,36.11,0,0,0,15.66,3.48v-9a27.22,27.22,0,0,1-11.77-2.58c-6.52-3.16-11.35-10.73-13.48-14.67l-1.86,9.06Z" style="fill:#26a9c7"/><path d="M169.69,187.61v-9c11.08,0,21.26-5.45,25.25-9.72C193.34,178.38,183.89,187.61,169.69,187.61Z" style="fill:#086b99"/><path d="M144.44,176.52a26.72,26.72,0,0,1-9.58,7.61,36.11,36.11,0,0,1-15.66,3.48l-2.15-5.26,2.15-3.69A27.22,27.22,0,0,0,131,176.08c6.52-3.16,11.35-10.73,13.47-14.67Z" style="fill:#086b99"/><path d="M94,176.52a26.75,26.75,0,0,0,9.59,7.61,36.07,36.07,0,0,0,15.66,3.48v-9a27.22,27.22,0,0,1-11.77-2.58c-6.52-3.16-11.35-10.73-13.48-14.67l-2.33,9.43Z" style="fill:#26a9c7"/><path d="M94,176.52a26.66,26.66,0,0,1-9.59,7.61,36.06,36.06,0,0,1-15.65,3.48l-1.87-4.88,1.87-4.07a27.22,27.22,0,0,0,11.77-2.58C87,172.92,91.83,165.35,94,161.41Z" style="fill:#086b99"/><path d="M68.71,187.61v-9c-11.08,0-21.26-5.45-25.25-9.72C45.06,178.38,54.5,187.61,68.71,187.61Z" style="fill:#26a9c7"/></g></g></svg>