<svg id="_1" data-name="1" xmlns="http://www.w3.org/2000/svg" viewBox="0 0 79.25 79.25"><path d="M39.63,79.25A39.63,39.63,0,1,0,0,39.63,39.7,39.7,0,0,0,39.63,79.25Z" style="fill:#191919;fill-rule:evenodd"/><path d="M45,49.36c0-4.34.55-7.91,5.37-8.67a28,28,0,0,0,8.72-3A16.12,16.12,0,0,0,64.53,33c2.31-3.34,2.53-9.68-1.06-12.42-.85,3.52-3.35,3.95-6.08,4.19a34.88,34.88,0,0,1-5.87-.16c-4.72-.36-9.43-.73-11.89,2.44-2.47-3.17-7.18-2.8-11.9-2.44a34.76,34.76,0,0,1-5.86.16c-2.74-.24-5.24-.67-6.09-4.19-3.59,2.74-3.37,9.08-1.06,12.42a16.12,16.12,0,0,0,5.48,4.68,28,28,0,0,0,8.72,3c4.82.76,5.33,4.33,5.37,8.67,3-5.78-.94-10-5.07-10.64A26.08,26.08,0,0,1,21.16,36a14,14,0,0,1-4.8-4.07A7.69,7.69,0,0,1,15,26.16a10.8,10.8,0,0,1,.48-1.83,5.5,5.5,0,0,0,1.26,1.05,11.67,11.67,0,0,0,4.91,1.42,38.77,38.77,0,0,0,6.19-.16c3.11-.25,6.21-.49,8.38.41a8.07,8.07,0,0,1,3.37,3.67A8,8,0,0,1,43,27.05c2.17-.9,5.27-.66,8.38-.41a38.77,38.77,0,0,0,6.19.16,11.63,11.63,0,0,0,4.91-1.42,5.29,5.29,0,0,0,1.26-1.05,9.94,9.94,0,0,1,.48,1.83,7.64,7.64,0,0,1-1.32,5.73A14,14,0,0,1,58.09,36,26.08,26.08,0,0,1,50,38.72C45.91,39.37,42,43.58,45,49.36ZM45.26,60c2.73,3.55,10.4,3.47,11.27-1.69a7,7,0,0,1-11.27-1.68c-1.22,2.26-3,3.85-5.63,3.85S35.21,58.89,34,56.63a7,7,0,0,1-11.27,1.68C23.6,63.47,31.26,63.55,34,60a7.12,7.12,0,0,0,5.64,2.48A7.11,7.11,0,0,0,45.26,60Zm5.63-7.14c2.73,3.54,10.4,3.47,11.27-1.69a7,7,0,0,1-11.27-1.68c-1.22,2.26-3,3.85-5.63,3.85s-4.42-1.59-5.63-3.85c-1.22,2.26-3,3.85-5.64,3.85s-4.41-1.59-5.63-3.85c-2.25,4.17-7.75,5.45-11.27,1.68.88,5.2,8.58,5.18,11.27,1.69A7.09,7.09,0,0,0,34,55.33a7.11,7.11,0,0,0,5.64-2.47,7.07,7.07,0,0,0,5.63,2.47A7.09,7.09,0,0,0,50.89,52.86Z" style="fill:#fff"/></svg>